HIERARCHY
ROOT SpineBase
{
  OFFSET 0.000000 0.000000 0.000000
  CHANNELS 6 Xposition Yposition Zposition Zrotation Xrotation Yrotation
  JOINT SpineMid
  {
    OFFSET -0.000000 29.315963 0.000000
    CHANNELS 3 Zrotation Xrotation Yrotation
    JOINT SpineShoulder
    {
      OFFSET -0.006458 21.846581 -0.661129
      CHANNELS 3 Zrotation Xrotation Yrotation
      JOINT Neck
      {
        OFFSET 0.025759 7.243286 -0.476550
        CHANNELS 3 Zrotation Xrotation Yrotation
        JOINT Head
        {
          OFFSET -5.435359 13.078520 -1.011419
          CHANNELS 3 Zrotation Xrotation Yrotation
          End Site
          {
            OFFSET 0 0 0
          }
        }
      }
      JOINT ShoulderLeft
      {
        OFFSET -15.548967 -4.830758 7.970516
        CHANNELS 3 Zrotation Xrotation Yrotation
        JOINT ElbowLeft
        {
          OFFSET -1.020705 -28.561917 1.647787
          CHANNELS 3 Zrotation Xrotation Yrotation
          JOINT WristLeft
          {
            OFFSET 0.671596 -20.957256 -3.825910
            CHANNELS 3 Zrotation Xrotation Yrotation
            JOINT HandLeft
            {
              OFFSET 0.105250 -0.774799 -1.472839
              CHANNELS 3 Zrotation Xrotation Yrotation
              JOINT HandTipLeft
              {
                OFFSET 0.852219 -7.236109 -0.760479
                CHANNELS 3 Zrotation Xrotation Yrotation
                End Site
                {
                  OFFSET 0 0 0
                }
              }
              JOINT ThumbLeft
              {
                OFFSET -1.919182 -2.558786 -2.867219
                CHANNELS 3 Zrotation Xrotation Yrotation
                End Site
                {
                  OFFSET 0 0 0
                }
              }
            }
          }
        }
      }
      JOINT ShoulderRight
      {
        OFFSET 13.921470 -2.717148 -8.315426
        CHANNELS 3 Zrotation Xrotation Yrotation
        JOINT ElbowRight
        {
          OFFSET 6.374830 -23.196332 -2.411198
          CHANNELS 3 Zrotation Xrotation Yrotation
          JOINT WristRight
          {
            OFFSET -3.330985 -20.415534 -5.532889
            CHANNELS 3 Zrotation Xrotation Yrotation
            JOINT HandRight
            {
              OFFSET -2.814058 -6.155664 -0.771195
              CHANNELS 3 Zrotation Xrotation Yrotation
              JOINT HandTipRight
              {
                OFFSET -0.735079 -6.228955 -0.132001
                CHANNELS 3 Zrotation Xrotation Yrotation
                End Site
                {
                  OFFSET 0 0 0
                }
              }
              JOINT ThumbRight
              {
                OFFSET -2.655689 1.029232 -1.750693
                CHANNELS 3 Zrotation Xrotation Yrotation
                End Site
                {
                  OFFSET 0 0 0
                }
              }
            }
          }
        }
      }
    }
  }
  JOINT HipLeft
  {
    OFFSET -6.254723 0.215871 -0.349081
    CHANNELS 3 Zrotation Xrotation Yrotation
    JOINT KneeLeft
    {
      OFFSET 6.007523 -29.630455 5.630275
      CHANNELS 3 Zrotation Xrotation Yrotation
      JOINT AnkleLeft
      {
        OFFSET 5.512849 -30.896324 4.472981
        CHANNELS 3 Zrotation Xrotation Yrotation
        JOINT FootLeft
        {
          OFFSET 5.315875 -6.358383 -5.489965
          CHANNELS 3 Zrotation Xrotation Yrotation
          End Site
          {
            OFFSET 0 0 0
          }
        }
      }
    }
  }
  JOINT HipRight
  {
    OFFSET 6.838345 1.419231 -6.018504
    CHANNELS 3 Zrotation Xrotation Yrotation
    JOINT KneeRight
    {
      OFFSET 7.399148 -27.887931 3.873085
      CHANNELS 3 Zrotation Xrotation Yrotation
      JOINT AnkleRight
      {
        OFFSET 2.256848 -34.145463 7.603173
        CHANNELS 3 Zrotation Xrotation Yrotation
        JOINT FootRight
        {
          OFFSET -5.012266 -6.851394 -2.774574
          CHANNELS 3 Zrotation Xrotation Yrotation
          End Site
          {
            OFFSET 0 0 0
          }
        }
      }
    }
  }
}
MOTION
Frames: 12
Frame Time: 0.033333
-32.238571 75.771451 344.843429 0.000000 0.000000 23.413070 -0.000000 0.000000 -23.413070 -0.000000 0.000000 0.000000 -0.000000 0.000000 0.000000 0.000000 0.000000 0.000000 -0.000000 0.000000 0.000000 -0.000000 0.000000 0.000000 -0.000000 0.000000 0.000000 -0.000000 0.000000 0.000000 0.000000 0.000000 0.000000 0.000000 0.000000 0.000000 -0.000000 0.000000 0.000000 -0.000000 0.000000 0.000000 -0.000000 0.000000 0.000000 -0.000000 0.000000 0.000000 0.000000 0.000000 0.000000 0.000000 0.000000 0.000000 -0.000000 0.000000 -23.413070 -0.000000 0.000000 0.000000 -0.000000 0.000000 0.000000 0.000000 0.000000 0.000000 -0.000000 0.000000 -23.413070 -0.000000 0.000000 0.000000 -0.000000 0.000000 0.000000 0.000000 0.000000 0.000000
-32.304088 75.779303 344.763189 -0.011430 0.086119 23.243466 -0.023484 -0.083640 -23.243474 -0.000000 0.000000 0.000000 -0.000000 0.000000 0.000000 0.000000 0.000000 0.000000 -0.000000 0.000000 0.000000 -0.000000 0.000000 0.000000 -0.737952 -2.857382 1.046689 0.912168 3.944685 -0.972566 0.000000 0.000000 0.000000 0.000000 0.000000 0.000000 -0.000000 0.000000 0.000000 -0.000000 0.000000 0.000000 2.037087 -0.914792 0.180883 -4.125111 2.464436 -0.223503 0.000000 0.000000 0.000000 0.000000 0.000000 0.000000 -0.023484 -0.083640 -23.243474 -0.000000 0.000000 0.000000 0.884886 -0.075792 -0.821973 0.000000 0.000000 0.000000 -0.023484 -0.083640 -23.243474 -0.000000 0.000000 0.000000 3.360686 1.870399 -2.826076 0.000000 0.000000 0.000000
-32.369578 75.778211 344.693704 -0.015293 0.152811 23.090504 -0.045863 -0.146566 -23.090543 -0.000000 0.000000 0.000000 -0.000000 0.000000 0.000000 0.000000 0.000000 0.000000 -0.000000 0.000000 0.000000 0.553403 0.879212 -0.076979 -1.894530 -7.382575 1.846089 1.841409 8.369838 -1.794734 0.000000 0.000000 0.000000 0.000000 0.000000 0.000000 -0.000000 0.000000 0.000000 -0.000000 0.000000 0.000000 4.034218 -1.733423 0.354299 -7.835344 4.613077 -0.274407 0.000000 0.000000 0.000000 0.000000 0.000000 0.000000 -0.045863 -0.146566 -23.090543 -0.000000 0.000000 0.000000 1.761556 0.030759 -1.476440 0.000000 0.000000 0.000000 -0.045863 -0.146566 -23.090543 -0.000000 0.000000 0.000000 6.194428 3.197445 -5.166501 0.000000 0.000000 0.000000
-32.435041 75.768175 344.634976 -0.011595 0.200086 22.954254 -0.067356 -0.188765 -22.954345 -0.000000 0.000000 0.000000 -0.000000 0.000000 0.000000 0.000000 0.000000 0.000000 -0.000000 0.000000 0.000000 0.814322 1.187125 -0.118804 -2.581953 -11.984685 2.203162 2.674147 13.121439 -2.357475 0.000000 0.000000 0.000000 0.000000 0.000000 0.000000 -0.829944 0.003326 0.087384 0.829938 -0.004591 -0.087326 5.974775 -2.449013 0.511930 -11.020244 6.351547 -0.210110 0.000000 0.000000 0.000000 0.000000 0.000000 0.000000 -0.067356 -0.188765 -22.954345 -0.000000 0.000000 0.000000 2.629888 0.322974 -1.965789 0.000000 0.000000 0.000000 -0.067356 -0.188765 -22.954345 -0.000000 0.000000 0.000000 8.460207 4.060231 -6.973285 0.000000 0.000000 0.000000
-32.500476 75.749196 344.587003 -0.000346 0.227963 22.834741 -0.088148 -0.210231 -22.834902 -0.000000 0.000000 0.000000 -0.000000 0.000000 0.000000 0.000000 0.000000 0.000000 -0.000000 0.000000 0.000000 1.064709 1.407526 -0.161936 -3.066932 -16.858095 2.078690 3.271778 17.909267 -2.545206 0.000000 0.000000 0.000000 0.000000 0.000000 0.000000 -0.909129 -0.084340 0.070816 1.859707 -0.087182 -0.302567 6.903076 -2.861322 0.852899 -13.590976 7.612791 -0.089355 0.000000 0.000000 0.000000 0.000000 0.000000 0.000000 -0.088148 -0.210231 -22.834902 -0.000000 0.000000 0.000000 3.488373 0.802832 -2.293523 0.000000 0.000000 0.000000 -0.088148 -0.210231 -22.834902 -0.000000 0.000000 0.000000 10.148198 4.530972 -8.228613 0.000000 0.000000 0.000000
-32.565884 75.721274 344.549786 0.018444 0.236460 22.731945 -0.108385 -0.210965 -22.732183 -0.000000 0.000000 0.000000 -0.000000 0.000000 0.000000 0.000000 0.000000 0.000000 -0.000000 0.000000 0.000000 1.304547 1.540604 -0.205753 -3.373296 -21.614930 1.472293 3.507043 22.350101 -2.268241 0.000000 0.000000 0.000000 0.000000 0.000000 0.000000 -0.893314 -0.216446 0.031763 2.204053 0.061191 -0.369166 8.333589 -3.354111 1.051304 -15.491955 8.361066 0.039677 0.000000 0.000000 0.000000 0.000000 0.000000 0.000000 -0.108385 -0.210965 -22.732183 -0.000000 0.000000 0.000000 4.334020 1.470935 -2.464045 0.000000 0.000000 0.000000 -0.108385 -0.210965 -22.732183 -0.000000 0.000000 0.000000 11.264240 4.663789 -8.930210 0.000000 0.000000 0.000000
-32.640471 75.675092 344.518817 0.031453 0.229251 22.621175 -0.117211 -0.199516 -22.621442 -0.000000 0.000000 0.000000 -0.000000 0.000000 0.000000 0.000000 0.000000 0.000000 -0.000000 0.000000 0.000000 1.618864 1.512327 -0.267690 -3.938688 -27.067073 1.057797 3.948935 27.404046 -2.347556 0.000000 0.000000 0.000000 0.000000 0.000000 0.000000 -0.715713 -0.447201 -0.051406 2.476994 0.399263 -0.437771 9.983175 -4.050740 1.371152 -16.082959 7.742018 0.096777 0.000000 0.000000 0.000000 0.000000 0.000000 0.000000 0.399682 -1.005528 -22.577077 -0.786755 0.545744 -0.035183 6.378461 3.926948 -2.273951 0.000000 0.000000 0.000000 -0.117211 -0.199516 -22.621442 -0.000000 0.000000 0.000000 12.444732 4.640343 -9.546455 0.000000 0.000000 0.000000
-32.713866 75.629299 344.478121 0.048923 0.237472 22.452419 -0.135910 -0.200786 -22.452759 -0.000000 0.000000 0.000000 -0.000000 0.000000 0.000000 0.000000 0.000000 0.000000 -0.000000 0.000000 0.000000 1.873305 1.320244 -0.320450 -4.201597 -29.709558 0.470547 2.906520 28.329950 -1.571647 0.000000 0.000000 0.000000 0.000000 0.000000 0.000000 -0.479912 -0.695342 -0.144380 2.742284 0.778241 -0.518693 11.411475 -3.843968 1.196898 -17.284613 6.802045 0.445522 0.000000 0.000000 0.000000 0.000000 0.000000 0.000000 0.501156 -1.124278 -22.390382 -0.940848 0.611119 -0.049992 6.971624 4.972462 -1.993680 0.000000 0.000000 0.000000 -0.135910 -0.200786 -22.452759 -0.000000 0.000000 0.000000 12.327342 4.210854 -9.114722 0.000000 0.000000 0.000000
-32.790871 75.597285 344.450217 0.080993 0.234661 22.412631 -0.164346 -0.186054 -22.413064 -0.000000 0.000000 0.000000 -0.000000 0.000000 0.000000 0.000000 0.000000 0.000000 -0.000000 0.000000 0.000000 2.011538 1.052434 -0.351222 -3.946423 -23.222721 1.028851 1.861991 19.868478 -1.596341 0.000000 0.000000 0.000000 0.000000 0.000000 0.000000 -0.223093 -0.954734 -0.241393 3.028351 1.144806 -0.607342 12.499318 -4.697801 1.736838 -17.499430 6.756419 0.390942 0.000000 0.000000 0.000000 0.000000 0.000000 0.000000 0.613607 -1.173344 -22.320839 -1.094672 0.617730 -0.077094 8.046375 1.864425 -5.152063 0.000000 0.000000 0.000000 0.451174 -0.720893 -22.369854 -0.772750 0.260295 -0.036582 10.734236 3.051297 -7.292512 0.000000 0.000000 0.000000
-32.881230 75.614598 344.384006 0.060332 0.292864 22.497389 -0.167803 -0.247490 -22.497905 -0.000000 0.000000 0.000000 -0.000000 0.000000 0.000000 0.000000 0.000000 0.000000 -0.000000 0.000000 0.000000 2.084688 1.115125 -0.364310 -3.117740 -27.235461 -2.574749 1.097784 25.470388 1.944475 0.000000 0.000000 0.000000 0.000000 0.000000 0.000000 0.023297 -1.215354 -0.336543 3.356113 1.529433 -0.714643 12.301605 -5.067975 2.094840 -16.610039 6.836649 0.232408 0.000000 0.000000 0.000000 0.000000 0.000000 0.000000 0.747964 -1.299390 -22.374694 -1.247284 0.623931 -0.104057 6.336335 2.053958 -3.646351 0.000000 0.000000 0.000000 0.440364 -0.793762 -22.457565 -0.770717 0.272483 -0.032982 9.817267 2.215605 -6.128292 0.000000 0.000000 0.000000
-32.991217 75.734556 344.221090 -0.011219 0.513833 22.947025 -0.190006 -0.477545 -22.947766 -0.000000 0.000000 0.000000 0.524445 -0.967342 -0.356135 0.000000 0.000000 0.000000 -0.000000 0.000000 0.000000 1.898846 1.209704 -0.327156 -2.469497 -37.003264 -9.500072 -1.682520 34.802231 8.496835 0.000000 0.000000 0.000000 0.000000 0.000000 0.000000 0.097235 -1.372395 -0.386513 3.639577 1.613174 -0.765111 12.333791 -4.007468 1.502861 -17.005869 7.064291 0.461241 0.000000 0.000000 0.000000 0.000000 0.000000 0.000000 0.820979 -1.643852 -22.804119 -0.535395 1.498260 0.135465 -1.752205 5.969148 5.963738 0.000000 0.000000 0.000000 0.276700 -1.272933 -22.983858 -0.740242 0.549965 0.046774 8.510281 1.547734 -4.939134 0.000000 0.000000 0.000000
-32.884372 75.578115 344.470964 0.375426 -0.046322 23.037989 -0.327358 0.189545 -23.037296 0.797642 -0.813247 0.061005 1.033798 -1.405923 -0.814278 0.000000 0.000000 0.000000 -0.796856 0.814017 -0.049684 2.203509 1.451366 -0.382596 -3.314529 -43.971220 -14.740516 -6.239059 39.680407 14.774834 0.000000 0.000000 0.000000 0.000000 0.000000 0.000000 -0.308750 -0.743993 -0.529060 3.503200 1.359570 -0.671219 10.614296 -3.079356 1.212762 -13.370706 5.753922 0.268270 0.000000 0.000000 0.000000 0.000000 0.000000 0.000000 0.629165 -0.461724 -22.865358 0.473011 1.369937 0.246508 -9.393298 7.962632 14.144866 0.000000 0.000000 0.000000 -0.327358 0.189545 -23.037296 -0.000000 0.000000 0.000000 7.102872 0.841745 -3.704076 0.000000 0.000000 0.000000
